<?xml version="1.0" encoding="utf-8"?>
<!-- Generator: Adobe Illustrator 15.1.0, SVG Export Plug-In . SVG Version: 6.00 Build 0)  -->
<!DOCTYPE svg PUBLIC "-//W3C//DTD SVG 1.1//EN" "http://www.w3.org/Graphics/SVG/1.1/DTD/svg11.dtd">
<svg version="1.1" id="Layer_1" xmlns="http://www.w3.org/2000/svg" xmlns:xlink="http://www.w3.org/1999/xlink" x="0px" y="0px"
	 width="200px" height="200px" viewBox="0 0 200 200" enable-background="new 0 0 200 200" xml:space="preserve">
<path fill="none" stroke="#FFFFFF" stroke-width="11" stroke-linecap="round" stroke-linejoin="round" d="M157.37,130.248"/>
<path fill="none" stroke="#FFFFFF" stroke-width="11" stroke-linecap="round" stroke-linejoin="round" d="M96.55,121.68H43.44
	c-16.311,0-27.95-8-27.95-17.869c0-9.871,11.64-17.86,27.95-17.86c1.85,0,3.659,0.1,5.409,0.3C50.21,70.64,66.1,58.32,85.53,58.32
	c19.52,0,35.47,12.45,36.689,28.17c1.681-0.23,3.41-0.36,5.19-0.36c14.29,0,25.08,7.96,25.08,17.771c0,3.379-1.28,6.539-3.54,9.229"
	/>
<path fill="none" stroke="#FFFFFF" stroke-width="11" stroke-linecap="round" stroke-linejoin="round" d="M160,120
	c-2.682,0-5.254,0.212-7.646,0.597C151.027,111.273,140.065,104,126.738,104c-13.804,0-33.209,11.157-31.887,27.102
	c0.854,10.296,12.631,9.84,20.185,9.922c10.843,0.119,21.697,0,32.541-0.003C151.718,141.02,155.859,141,160,141
	c12.702,0,23-4.701,23-10.5S172.702,120,160,120z"/>
</svg>
