<?xml version="1.0" encoding="utf-8"?>
<!-- Generator: Adobe Illustrator 15.1.0, SVG Export Plug-In . SVG Version: 6.00 Build 0)  -->
<!DOCTYPE svg PUBLIC "-//W3C//DTD SVG 1.1//EN" "http://www.w3.org/Graphics/SVG/1.1/DTD/svg11.dtd">
<svg version="1.1" id="Layer_1" xmlns="http://www.w3.org/2000/svg" xmlns:xlink="http://www.w3.org/1999/xlink" x="0px" y="0px"
	 width="200px" height="200px" viewBox="0 0 200 200" enable-background="new 0 0 200 200" xml:space="preserve">
<g>
	<g>
		
			<line fill="none" stroke="#FFFFFF" stroke-width="11" stroke-linecap="round" stroke-linejoin="round" x1="62" y1="109.5" x2="60.361" y2="114.224"/>
		
			<line fill="none" stroke="#FFFFFF" stroke-width="11" stroke-linecap="round" stroke-linejoin="round" stroke-dasharray="11.1244,22.2488" x1="53.072" y1="135.245" x2="45.783" y2="156.266"/>
		
			<line fill="none" stroke="#FFFFFF" stroke-width="11" stroke-linecap="round" stroke-linejoin="round" x1="42.139" y1="166.776" x2="40.5" y2="171.5"/>
	</g>
</g>
<g>
	<g>
		
			<line fill="none" stroke="#FFFFFF" stroke-width="11" stroke-linecap="round" stroke-linejoin="round" x1="88.63" y1="109.5" x2="86.992" y2="114.224"/>
		
			<line fill="none" stroke="#FFFFFF" stroke-width="11" stroke-linecap="round" stroke-linejoin="round" stroke-dasharray="11.1244,22.2488" x1="79.702" y1="135.245" x2="72.413" y2="156.266"/>
		
			<line fill="none" stroke="#FFFFFF" stroke-width="11" stroke-linecap="round" stroke-linejoin="round" x1="68.768" y1="166.776" x2="67.13" y2="171.5"/>
	</g>
</g>
<g>
	<g>
		
			<line fill="none" stroke="#FFFFFF" stroke-width="11" stroke-linecap="round" stroke-linejoin="round" x1="114.084" y1="109.5" x2="112.445" y2="114.224"/>
		
			<line fill="none" stroke="#FFFFFF" stroke-width="11" stroke-linecap="round" stroke-linejoin="round" stroke-dasharray="11.1244,22.2488" x1="105.156" y1="135.245" x2="97.867" y2="156.266"/>
		
			<line fill="none" stroke="#FFFFFF" stroke-width="11" stroke-linecap="round" stroke-linejoin="round" x1="94.223" y1="166.776" x2="92.584" y2="171.5"/>
	</g>
</g>
<g>
	<g>
		
			<line fill="none" stroke="#FFFFFF" stroke-width="11" stroke-linecap="round" stroke-linejoin="round" x1="139.418" y1="109.5" x2="137.779" y2="114.224"/>
		
			<line fill="none" stroke="#FFFFFF" stroke-width="11" stroke-linecap="round" stroke-linejoin="round" stroke-dasharray="11.1244,22.2488" x1="130.49" y1="135.245" x2="123.201" y2="156.266"/>
		
			<line fill="none" stroke="#FFFFFF" stroke-width="11" stroke-linecap="round" stroke-linejoin="round" x1="119.557" y1="166.776" x2="117.918" y2="171.5"/>
	</g>
</g>
<path fill="none" stroke="#FFFFFF" stroke-width="11" stroke-linecap="round" stroke-linejoin="round" d="M154.334,107
	C172.375,107,186,96.953,186,84.559s-13.625-22.442-31.666-22.442c-2.246,0-4.438,0.156-6.557,0.453
	C146.244,42.716,126.091,27,101.441,27c-24.524,0-44.595,15.557-46.309,35.267c-2.219-0.249-4.503-0.385-6.841-0.385
	C27.696,61.881,13,71.981,13,84.44C13,96.9,27.696,107,48.292,107"/>
</svg>
