<?xml version="1.0" encoding="utf-8"?>
<!-- Generator: Adobe Illustrator 15.1.0, SVG Export Plug-In . SVG Version: 6.00 Build 0)  -->
<!DOCTYPE svg PUBLIC "-//W3C//DTD SVG 1.1//EN" "http://www.w3.org/Graphics/SVG/1.1/DTD/svg11.dtd">
<svg version="1.1" id="Layer_1" xmlns="http://www.w3.org/2000/svg" xmlns:xlink="http://www.w3.org/1999/xlink" x="0px" y="0px"
	 width="200px" height="200px" viewBox="0 0 200 200" enable-background="new 0 0 200 200" xml:space="preserve">
<g>
	
		<line fill="none" stroke="#FFFFFF" stroke-width="11" stroke-linecap="round" stroke-linejoin="round" x1="139.614" y1="80.82" x2="69.614" y2="80.82"/>
	<path fill="none" stroke="#FFFFFF" stroke-width="11" stroke-linecap="round" stroke-linejoin="round" d="M66.767,80.82
		c-10.079,0-18.25-8.171-18.25-18.25s8.171-18.25,18.25-18.25S84.93,50.716,84.93,60.795"/>
</g>
<g>
	
		<line fill="none" stroke="#FFFFFF" stroke-width="11" stroke-linecap="round" stroke-linejoin="round" x1="169" y1="104" x2="48.637" y2="104"/>
	<path fill="none" stroke="#FFFFFF" stroke-width="11" stroke-linecap="round" stroke-linejoin="round" d="M45.32,104
		c-11.738,0-21.255,9.776-21.255,21.837s9.517,21.838,21.255,21.838c11.739,0,21.154-7.653,21.154-19.714"/>
</g>
<g>
	
		<line fill="none" stroke="#FFFFFF" stroke-width="11" stroke-linecap="round" stroke-linejoin="round" x1="176.217" y1="125.5" x2="110.041" y2="125.5"/>
	<path fill="none" stroke="#FFFFFF" stroke-width="11" stroke-linecap="round" stroke-linejoin="round" d="M108.218,125.5
		c-6.453,0-11.686,5.375-11.686,12.006s5.232,12.006,11.686,12.006c6.454,0,11.631-4.207,11.631-10.838"/>
</g>
</svg>
